<mxfile host="app.diagrams.net" modified="2023-10-10T00:15:35.637Z" agent="Mozilla/5.0 (Windows NT 10.0; Win64; x64) AppleWebKit/537.36 (KHTML, like Gecko) Chrome/117.0.0.0 Safari/537.36" version="22.0.4" etag="XCcYjygWrbhLoMLFdnI7" type="github">
  <diagram name="PÃ¡gina-1" id="w2GuvtHMBDO7TVL7gY4m">
    <mxGraphModel>
      <root>
        <mxCell id="0" />
        <mxCell id="1" parent="0" />
      </root>
    </mxGraphModel>
  </diagram>
</mxfile>
